<svg width="212" height="212" viewBox="0 0 212 212" fill="none" xmlns="http://www.w3.org/2000/svg">
<circle cx="105.368" cy="106" r="90" fill="#B341FF" fill-opacity="0.3"/>
<circle cx="105.368" cy="106" r="74" fill="#8C12DC" stroke="#332D57" stroke-width="8"/>
<mask id="mask0_2_332" style="mask-type:alpha" maskUnits="userSpaceOnUse" x="35" y="36" width="141" height="140">
<circle cx="105.368" cy="106" r="70" fill="#B341FF"/>
</mask>
<g mask="url(#mask0_2_332)">
<circle cx="89.3677" cy="106" r="70" fill="#B341FF"/>
</g>
<circle cx="46.3677" cy="99" r="4" fill="white"/>
<path fill-rule="evenodd" clip-rule="evenodd" d="M177.207 48.8115C177.06 42.6868 175.31 38.5923 172.692 35.974C170.074 33.3558 165.979 31.6058 159.854 31.4591C153.673 31.311 145.933 32.8367 137.041 36.2625C134.724 37.1553 132.354 38.1677 129.939 39.2967C129.053 39.7113 128.043 39.7673 127.113 39.4631C123.813 38.3846 123.117 33.6652 126.259 32.1868C148.644 21.6519 168.211 20.1795 178.349 30.3172C196.197 48.1655 178.058 95.2424 137.834 135.466C97.61 175.69 50.5331 193.829 32.6848 175.981C23.3537 166.65 23.8587 149.33 32.2132 129.177C33.554 125.943 38.3387 126.479 39.5279 129.772C39.8546 130.677 39.8375 131.67 39.4719 132.559C39.1805 133.269 38.8998 133.974 38.6301 134.674C35.2043 143.565 33.6786 151.306 33.8267 157.487C33.9734 163.612 35.7234 167.706 38.3417 170.324C40.9599 172.943 45.0544 174.693 51.1792 174.839C57.3605 174.987 65.101 173.462 73.9922 170.036C91.7535 163.192 112.666 149.321 132.177 129.81C151.688 110.298 165.56 89.3859 172.403 71.6245C175.829 62.7334 177.355 54.9928 177.207 48.8115Z" fill="#332D57"/>
<path fill-rule="evenodd" clip-rule="evenodd" d="M78.5186 145.526C77.6417 146.916 75.9909 147.624 74.3831 147.282C31.5164 138.162 1.24813 117.752 3.07876 96.8275C4.25375 83.3973 18.4149 72.4718 39.9893 65.962C43.297 64.964 45.9291 68.8645 44.2452 71.8814C43.7557 72.7583 42.9456 73.4236 41.9851 73.7166C40.8118 74.0744 39.6643 74.4457 38.5436 74.83C29.5305 77.9208 22.6203 81.7276 17.9803 85.8143C13.3827 89.8635 11.371 93.836 11.0483 97.5247C10.7256 101.213 12.0169 105.475 15.8415 110.261C19.7013 115.091 25.8455 120.04 34.185 124.649C45.2226 130.749 59.5128 135.926 75.895 139.424C78.6409 140.011 80.0166 143.151 78.5186 145.526ZM88.8279 144.177C89.6764 142.832 91.2353 142.114 92.8121 142.32C95.9563 142.731 99.1547 143.08 102.401 143.364C129.889 145.769 154.825 142.953 172.83 136.779C181.843 133.688 188.753 129.881 193.393 125.795C197.991 121.745 200.003 117.773 200.325 114.084C200.648 110.396 199.357 106.134 195.532 101.348C191.672 96.5177 185.528 91.5688 177.189 86.9598C176.258 86.4454 175.304 85.9376 174.328 85.4368C172.783 84.6443 171.603 83.2884 171 81.6604C169.935 78.79 172.802 75.7743 175.556 77.1104C196.72 87.3757 209.504 100.967 208.295 114.782C206.095 139.927 158.372 156.292 101.703 151.334C98.2945 151.036 94.9307 150.667 91.6197 150.232C88.7473 149.855 87.2824 146.627 88.8279 144.177Z" fill="#332D57"/>
<circle cx="31.3677" cy="29" r="7" fill="#F7931B"/>
<circle cx="46.3677" cy="22" r="3" fill="#FECD64"/>
<circle cx="169.368" cy="184" r="5" fill="#F7931B"/>
<circle cx="181.368" cy="171" r="6" fill="#FECD64"/>
<circle cx="166.368" cy="168" r="3" fill="#FECD64"/>
<circle cx="133.559" cy="86.5585" r="15" transform="rotate(-16.028 133.559 86.5585)" fill="white"/>
<circle cx="80.5585" cy="81.5585" r="15" transform="rotate(-16.028 80.5585 81.5585)" fill="white"/>
<ellipse cx="76.5" cy="95.5" rx="17.5" ry="13.5" fill="#B341FF"/>
<ellipse cx="125.5" cy="102.5" rx="17.5" ry="13.5" fill="#B341FF"/>
<path fill-rule="evenodd" clip-rule="evenodd" d="M115.694 103.553C115.682 103.543 115.67 103.534 115.658 103.525C115.646 103.516 115.634 103.506 115.622 103.497L115.694 103.553ZM109.973 104.848C111.423 102.985 110.976 100.264 108.882 99.1747C101.037 95.0955 92.3287 93.5788 83.8885 94.4837C80.3267 94.8656 79.4555 99.2163 82.2827 101.416V101.416C83.2217 102.146 84.4141 102.455 85.5996 102.356C92.005 101.823 98.5649 102.99 104.548 105.948C106.405 106.866 108.701 106.484 109.973 104.848V104.848Z" fill="#332D57"/>
<path fill-rule="evenodd" clip-rule="evenodd" d="M129 59.5584C129.004 59.5729 129.009 59.5873 129.013 59.6018C129.018 59.6163 129.022 59.6307 129.027 59.6452L129 59.5584ZM134.431 61.7736C132.175 62.4704 130.983 64.9566 132.076 67.049C136.17 74.8867 142.439 81.1178 149.875 85.2109C153.013 86.9381 156.22 83.8709 155.162 80.4485V80.4485C154.811 79.3118 154.011 78.3758 152.982 77.7776C147.427 74.5454 142.718 69.8315 139.508 63.98C138.511 62.1629 136.411 61.1618 134.431 61.7736V61.7736Z" fill="#332D57"/>
<path fill-rule="evenodd" clip-rule="evenodd" d="M59.0001 67.2097C59.0139 67.2159 59.0278 67.222 59.0416 67.2281C59.0554 67.2343 59.0693 67.2404 59.0831 67.2466L59.0001 67.2097ZM64.2401 64.5745C63.2821 66.732 64.3709 69.2654 66.666 69.8178C75.2632 71.8867 84.0799 71.2609 92.0535 68.3493C95.4183 67.1206 95.2157 62.6882 91.9419 61.2344V61.2344C90.8546 60.7516 89.623 60.7393 88.4961 61.1207C82.4079 63.1812 75.7601 63.6293 69.241 62.2C67.2166 61.7561 65.0812 62.6804 64.2401 64.5745V64.5745Z" fill="#332D57"/>
</svg>
