<svg width="212" height="212" viewBox="0 0 212 212" fill="none" xmlns="http://www.w3.org/2000/svg">
  <circle cx="107.926" cy="106" r="90" fill="#FFC240" fill-opacity="0.3" />
  <circle cx="107.926" cy="106" r="74" fill="#F7931B" stroke="#332D57" stroke-width="8" />
  <mask id="mask0_2_41" style="mask-type:alpha" maskUnits="userSpaceOnUse" x="37" y="36" width="141"
    height="140">
    <circle cx="107.926" cy="106" r="70" fill="#FFC240" />
  </mask>
  <g mask="url(#mask0_2_41)">
    <circle cx="91.9263" cy="106" r="70" fill="#FFC240" />
  </g>
  <path fill-rule="evenodd" clip-rule="evenodd"
    d="M83.9263 55.0474C83.9263 52.0875 80.9122 50.1004 78.3128 51.5162C65.0884 58.7193 54.7773 70.5968 49.5988 84.9295C48.687 87.453 50.6424 90.0001 53.3255 90.0001C55.1158 90.0001 56.6826 88.8281 57.3075 87.1505C61.8108 75.0624 70.5203 65.0222 81.6564 58.8097C83.0292 58.0439 83.9263 56.6193 83.9263 55.0474Z"
    fill="white" />
  <circle cx="48.9263" cy="99" r="4" fill="white" />
  <path fill-rule="evenodd" clip-rule="evenodd"
    d="M177.923 105.376C177.922 105.179 178.012 104.993 178.168 104.872C178.752 104.42 179.326 103.967 179.889 103.513C187.301 97.5255 192.493 91.5848 195.455 86.1576C198.39 80.7801 198.922 76.3591 197.964 72.7825C197.005 69.2059 194.335 65.6431 189.104 62.4537C183.825 59.2348 176.358 56.6858 166.945 55.2071C163.506 54.6668 159.858 54.2774 156.029 54.0455C155.208 53.9958 154.423 53.6668 153.802 53.128C151.085 50.7701 152.593 45.8315 156.184 46.0406C182.635 47.5804 201.809 56.2239 205.691 70.712C212.224 95.0932 172.977 126.793 118.03 141.516C75.0723 153.027 35.2367 150.753 16.7759 137.562C14.5359 135.962 14.9623 132.711 17.3464 131.335C18.8726 130.454 20.7734 130.64 22.2414 131.615C22.5814 131.841 22.9335 132.065 23.2981 132.287C28.5772 135.506 36.0435 138.055 45.4564 139.534C64.26 142.488 89.3066 140.931 115.959 133.789C140.617 127.182 161.694 117.123 176.436 106.184C176.598 106.064 176.792 106 176.993 106H177.302C177.647 106 177.927 105.72 177.923 105.376ZM13.5603 124.283C14.3575 123.823 14.6762 122.847 14.4379 121.958C13.4796 118.382 14.0113 113.961 16.9466 108.583C19.9091 103.156 25.1006 97.2152 32.513 91.2281C34.864 89.3292 37.4081 87.4502 40.1314 85.6038C40.8091 85.1444 41.3139 84.4717 41.5748 83.6956C42.7233 80.2791 38.9115 76.7771 35.9231 78.7922C14.6235 93.155 2.90667 109.833 6.71052 124.029C7.22661 125.955 9.46493 126.648 11.1918 125.651L13.5603 124.283Z"
    fill="#332D57" />
  <path fill-rule="evenodd" clip-rule="evenodd"
    d="M171.246 138.999C170.128 139.229 169.163 139.933 168.594 140.922C166.935 143.802 169.194 147.572 172.452 146.918C186.872 144.021 197.7 138.411 202.931 130.404C204.561 127.91 202.465 125 199.486 125C197.858 125 196.397 125.924 195.387 127.2C193.927 129.046 191.874 130.84 189.104 132.529C184.656 135.241 178.655 137.478 171.246 138.999ZM202.642 120C200.333 120 198.534 117.994 198.085 115.73C197.669 113.628 196.823 111.331 195.455 108.825C192.493 103.398 187.301 97.4575 179.889 91.4704C165.081 79.5104 142.612 68.3355 115.959 61.1939C89.3066 54.0524 64.26 52.4954 45.4564 55.4494C36.0435 56.9281 28.5772 59.4771 23.2981 62.696C18.0672 65.8854 15.3963 69.4482 14.4379 73.0248C13.4796 76.6014 14.0113 81.0224 16.9466 86.3999C19.9091 91.8271 25.1006 97.7678 32.513 103.755C33.7652 104.766 35.0722 105.772 36.4319 106.77C37.3827 107.468 37.9631 108.562 38.0262 109.74C38.2006 112.998 34.5827 115.326 31.9475 113.402C13.1854 99.7005 3.15046 84.2406 6.71052 70.9543C13.2435 46.5731 63.0828 38.7435 118.03 53.4665C167.139 66.6254 203.708 93.3459 206.259 116.282C206.491 118.36 204.733 120 202.642 120Z"
    fill="#332D57" />
  <circle cx="90.9263" cy="140.806" r="14" fill="#A8E5FE" />
  <path fill-rule="evenodd" clip-rule="evenodd"
    d="M80.9263 130.053C80.9263 126.279 76.9116 124.073 74.5478 127.015C71.6564 130.613 69.9263 135.184 69.9263 140.159C69.9263 151.757 79.3283 161.159 90.9263 161.159C102.524 161.159 111.926 151.757 111.926 140.159C111.926 130.803 105.808 122.876 97.3532 120.161C95.0414 119.418 92.9263 121.352 92.9263 123.78C92.9263 125.812 94.4507 127.478 96.3008 128.319C100.799 130.364 103.926 134.896 103.926 140.159C103.926 147.339 98.106 153.159 90.9263 153.159C83.7466 153.159 77.9263 147.339 77.9263 140.159C77.9263 137.646 78.6395 135.299 79.8746 133.31C80.488 132.323 80.9263 131.215 80.9263 130.053Z"
    fill="#332D57" />
  <circle cx="33.9263" cy="29" r="7" fill="#F7931B" />
  <circle cx="48.9263" cy="22" r="3" fill="#FECD64" />
  <circle cx="171.926" cy="184" r="5" fill="#F7931B" />
  <circle cx="183.926" cy="171" r="6" fill="#FECD64" />
  <circle cx="168.926" cy="168" r="3" fill="#FECD64" />
  <circle cx="141.559" cy="88.5585" r="15" transform="rotate(-16.028 141.559 88.5585)" fill="white" />
  <circle cx="88.5585" cy="83.5585" r="15" transform="rotate(-16.028 88.5585 83.5585)" fill="white" />
  <ellipse cx="84.5" cy="97.5" rx="17.5" ry="13.5" fill="#FFC240" />
  <ellipse cx="133.5" cy="104.5" rx="17.5" ry="1.5" fill="#FFC240" />
  <mask id="path-20-inside-1_2_41" fill="white">
    <path
      d="M101.131 102.782C100.239 104.804 101.151 107.182 103.238 107.91C109.054 109.937 115.195 110.872 121.351 110.668C123.559 110.595 125.138 108.596 124.888 106.401V106.401C124.639 104.205 122.655 102.647 120.446 102.687C115.703 102.771 110.98 102.052 106.478 100.559C104.381 99.8636 102.023 100.76 101.131 102.782V102.782Z" />
  </mask>
  <path
    d="M101.131 102.782C100.239 104.804 101.151 107.182 103.238 107.91C109.054 109.937 115.195 110.872 121.351 110.668C123.559 110.595 125.138 108.596 124.888 106.401V106.401C124.639 104.205 122.655 102.647 120.446 102.687C115.703 102.771 110.98 102.052 106.478 100.559C104.381 99.8636 102.023 100.76 101.131 102.782V102.782Z"
    stroke="#332D57" stroke-width="16" mask="url(#path-20-inside-1_2_41)" />
</svg>
