<svg width="212" height="212" viewBox="0 0 212 212" fill="none" xmlns="http://www.w3.org/2000/svg">
<circle cx="105" cy="106" r="90" fill="white" fill-opacity="0.3"/>
<circle cx="105" cy="106" r="74" fill="#89BFF2" stroke="#332D57" stroke-width="8"/>
<mask id="mask0_2_334" style="mask-type:alpha" maskUnits="userSpaceOnUse" x="35" y="36" width="140" height="140">
<circle cx="105" cy="106" r="70" fill="#D2E1FB"/>
</mask>
<g mask="url(#mask0_2_334)">
<circle cx="89" cy="106" r="70" fill="#D2E1FB"/>
</g>
<mask id="mask1_2_334" style="mask-type:alpha" maskUnits="userSpaceOnUse" x="35" y="36" width="140" height="140">
<circle cx="105" cy="106" r="70" fill="#89BFF2"/>
</mask>
<g mask="url(#mask1_2_334)">
<circle cx="125" cy="43" r="9" transform="rotate(-90 125 43)" fill="#C5E0EF" stroke="#332D57" stroke-width="6"/>
<circle cx="112" cy="173" r="10" transform="rotate(-90 112 173)" stroke="#332D57" stroke-width="6"/>
</g>
<path fill-rule="evenodd" clip-rule="evenodd" d="M81.3677 55.0474C81.3677 52.0875 78.3536 50.1004 75.7542 51.5162C62.5298 58.7193 52.2187 70.5968 47.0402 84.9295C46.1284 87.453 48.0838 90.0001 50.7669 90.0001C52.5572 90.0001 54.124 88.8281 54.749 87.1505C59.2522 75.0624 67.9617 65.0222 79.0978 58.8097C80.4706 58.0439 81.3677 56.6193 81.3677 55.0474Z" fill="white"/>
<circle cx="46.3677" cy="99" r="4" fill="white"/>
<path fill-rule="evenodd" clip-rule="evenodd" d="M35.427 91.1541C36.2847 90.624 36.8968 89.7824 37.1444 88.805C37.9917 85.4609 34.4586 82.3606 31.5187 84.1656C12.0952 96.0908 1.06304 110.423 3.42165 123.799C7.80475 148.657 56.772 160.801 112.793 150.923C168.814 141.045 210.675 112.886 206.292 88.0279C205.349 82.6769 202.339 77.9151 197.638 73.8352C195.907 72.3327 193.292 72.877 192.069 74.816L190.335 77.5647C190.17 77.8267 190.238 78.1717 190.487 78.3554C195.42 81.9886 197.771 85.7706 198.414 89.4171C199.057 93.0636 198.142 97.4214 194.749 102.523C191.325 107.671 185.635 113.137 177.729 118.455C161.936 129.079 138.578 138.253 111.404 143.044C84.2303 147.836 59.1433 147.204 40.6688 142.622C31.4206 140.329 24.2048 137.139 19.2263 133.472C14.2934 129.839 11.9431 126.057 11.3001 122.41C10.6571 118.764 11.5721 114.406 14.965 109.305C18.3891 104.156 24.0787 98.6908 31.9847 93.3725C33.0952 92.6255 34.243 91.8857 35.427 91.1541ZM184.997 71.0317C183.912 72.7519 181.72 73.3835 179.832 72.6278C176.623 71.3434 173.022 70.1913 169.045 69.2051C167.846 68.9077 166.618 68.6269 165.365 68.3632C164.379 68.1559 163.514 67.5673 162.949 66.7334C161.013 63.8759 163.287 59.7621 166.667 60.4626C172.785 61.7307 178.367 63.3859 183.293 65.3981C185.514 66.3054 186.277 69.0026 184.997 71.0317Z" fill="#332D57"/>
<mask id="mask2_2_334" style="mask-type:alpha" maskUnits="userSpaceOnUse" x="27" y="28" width="156" height="156">
<circle cx="105" cy="106" r="74" fill="#89BFF2" stroke="#332D57" stroke-width="8"/>
</mask>
<g mask="url(#mask2_2_334)">
<path fill-rule="evenodd" clip-rule="evenodd" d="M137.756 153.932C136.928 157.022 139.828 159.795 142.846 158.735C171.305 148.735 192.337 134.024 199.323 119.053C200.721 116.057 197.836 113.303 194.642 114.158C193.283 114.523 192.192 115.51 191.535 116.755C191.088 117.603 190.57 118.473 189.976 119.366C186.552 124.515 180.863 129.98 172.957 135.298C164.204 141.186 153.129 146.628 140.369 151.126C139.09 151.577 138.106 152.622 137.756 153.932ZM46.3092 166.035C46.9281 163.725 45.3871 161.4 43.0334 160.979C40.5593 160.537 38.1774 160.032 35.8964 159.466C34.5798 159.139 33.3044 158.795 32.0708 158.433C31.2498 158.192 30.3785 158.173 29.5522 158.394C25.4923 159.482 25.1228 164.698 29.1473 165.91C33.0985 167.1 37.3561 168.1 41.8755 168.899C43.8717 169.252 45.7846 167.993 46.3092 166.035Z" fill="#332D57"/>
</g>
<circle cx="163" cy="27" r="10" fill="#F7931B" stroke="#332D57" stroke-width="8"/>
<circle cx="183" cy="160" r="6" fill="#332D57"/>
<circle cx="58" cy="129" r="7" transform="rotate(-90 58 129)" fill="#D2E1FB" stroke="#332D57" stroke-width="6"/>
<circle cx="133.559" cy="93.5585" r="15" transform="rotate(-16.028 133.559 93.5585)" fill="white"/>
<circle cx="80.5585" cy="88.5585" r="15" transform="rotate(-16.028 80.5585 88.5585)" fill="white"/>
<ellipse cx="75.5" cy="108.5" rx="17.5" ry="13.5" fill="#D2E1FB"/>
<ellipse cx="140.5" cy="115.5" rx="17.5" ry="13.5" fill="#D2E1FB"/>
<mask id="path-20-inside-1_2_334" fill="white">
<path d="M92.2906 108.668C91.6234 110.182 92.3065 111.959 93.8569 112.537C100.366 114.962 107.304 116.021 114.238 115.649C115.891 115.56 117.074 114.065 116.887 112.419V112.419C116.7 110.774 115.215 109.603 113.561 109.679C107.685 109.948 101.812 109.052 96.2826 107.042C94.7261 106.476 92.9585 107.153 92.2906 108.668V108.668Z"/>
</mask>
<path d="M92.2906 108.668C91.6234 110.182 92.3065 111.959 93.8569 112.537C100.366 114.962 107.304 116.021 114.238 115.649C115.891 115.56 117.074 114.065 116.887 112.419V112.419C116.7 110.774 115.215 109.603 113.561 109.679C107.685 109.948 101.812 109.052 96.2826 107.042C94.7261 106.476 92.9585 107.153 92.2906 108.668V108.668Z" stroke="#332D57" stroke-width="16" mask="url(#path-20-inside-1_2_334)"/>
</svg>
