<svg width="212" height="212" viewBox="0 0 212 212" fill="none" xmlns="http://www.w3.org/2000/svg">
<circle cx="107.926" cy="106" r="90" fill="#FFCBBA" fill-opacity="0.3"/>
<path fill-rule="evenodd" clip-rule="evenodd" d="M116 197.311C116 199.659 118.009 201.513 120.338 201.215C144.986 198.052 166.71 185.542 181.84 167.352C183.994 164.763 182.065 161 178.697 161C177.434 161 176.244 161.577 175.432 162.545C161.644 178.97 141.965 190.285 119.648 193.236C117.588 193.508 116 195.233 116 197.311Z" fill="#332D57"/>
<circle cx="107.926" cy="106" r="74" fill="#CD3D0D" stroke="#332D57" stroke-width="8"/>
<mask id="mask0_2_336" style="mask-type:alpha" maskUnits="userSpaceOnUse" x="37" y="36" width="141" height="140">
<circle cx="107.926" cy="106" r="70" fill="#F05927"/>
</mask>
<g mask="url(#mask0_2_336)">
<circle cx="91.9263" cy="106" r="70" fill="#F05927"/>
</g>
<path fill-rule="evenodd" clip-rule="evenodd" d="M83.9263 55.0474C83.9263 52.0875 80.9122 50.1004 78.3128 51.5162C65.0884 58.7193 54.7773 70.5968 49.5988 84.9295C48.687 87.453 50.6424 90.0001 53.3255 90.0001C55.1158 90.0001 56.6826 88.8281 57.3075 87.1505C61.8108 75.0624 70.5203 65.0222 81.6564 58.8097C83.0292 58.0439 83.9263 56.6193 83.9263 55.0474Z" fill="white"/>
<circle cx="48.9263" cy="99" r="4" fill="white"/>
<path fill-rule="evenodd" clip-rule="evenodd" d="M177.923 105.376C177.922 105.179 178.012 104.993 178.168 104.872C178.752 104.42 179.326 103.967 179.889 103.513C187.301 97.5255 192.493 91.5848 195.455 86.1576C198.39 80.7801 198.922 76.3591 197.964 72.7825C197.005 69.2059 194.335 65.6431 189.104 62.4537C183.825 59.2348 176.358 56.6858 166.945 55.2071C163.506 54.6668 159.858 54.2774 156.029 54.0455C155.208 53.9958 154.423 53.6668 153.802 53.128C151.085 50.7701 152.593 45.8315 156.184 46.0406C182.635 47.5804 201.809 56.2239 205.691 70.712C212.224 95.0932 172.977 126.793 118.03 141.516C75.0723 153.027 35.2367 150.753 16.7759 137.562C14.5359 135.962 14.9623 132.711 17.3465 131.335V131.335C18.8726 130.454 20.7734 130.64 22.2414 131.615C22.5814 131.841 22.9335 132.065 23.2981 132.287C28.5772 135.506 36.0435 138.055 45.4564 139.534C64.26 142.488 89.3066 140.931 115.959 133.789C140.617 127.182 161.694 117.123 176.436 106.184C176.598 106.064 176.792 106 176.993 106H177.302C177.647 106 177.927 105.72 177.923 105.376ZM13.5603 124.283C14.3575 123.823 14.6762 122.847 14.4379 121.958V121.958C13.4796 118.382 14.0113 113.961 16.9466 108.583C19.9091 103.156 25.1006 97.2152 32.513 91.2281C34.864 89.3292 37.4081 87.4502 40.1314 85.6038C40.8091 85.1444 41.3139 84.4717 41.5748 83.6956C42.7233 80.2791 38.9115 76.7771 35.9231 78.7922C14.6235 93.155 2.90667 109.833 6.71052 124.029V124.029C7.22661 125.955 9.46493 126.648 11.1918 125.651L13.5603 124.283Z" fill="#332D57"/>
<circle cx="90.9263" cy="140.806" r="14" fill="#FFD136"/>
<path fill-rule="evenodd" clip-rule="evenodd" d="M79.4093 129.307C78.0378 126.931 74.7866 126.447 73.2941 128.748C71.1635 132.033 69.9263 135.952 69.9263 140.159C69.9263 151.757 79.3283 161.159 90.9263 161.159C102.524 161.159 111.926 151.757 111.926 140.159C111.926 128.561 102.524 119.159 90.9263 119.159C90.4339 119.159 89.9456 119.176 89.4617 119.209C86.7608 119.395 85.5964 122.416 86.9501 124.761L87.2327 125.25C87.9727 126.532 89.4462 127.159 90.9263 127.159C98.106 127.159 103.926 132.979 103.926 140.159C103.926 147.339 98.106 153.159 90.9263 153.159C83.7466 153.159 77.9263 147.339 77.9263 140.159C77.9263 138.082 78.4133 136.119 79.2795 134.378C80.0769 132.774 80.3046 130.858 79.4093 129.307Z" fill="#332D57"/>
<circle cx="117" cy="31" r="9" fill="#FFD136" stroke="#332D57" stroke-width="8"/>
<circle cx="191" cy="149" r="11" fill="#F17940"/>
<circle cx="32" cy="21" r="5" transform="rotate(180 32 21)" fill="#F96E52"/>
<circle cx="20" cy="34" r="6" transform="rotate(180 20 34)" fill="#FECD64"/>
<circle cx="35" cy="37" r="3" transform="rotate(180 35 37)" fill="#FECD64"/>
<circle cx="151.559" cy="89.5585" r="15" transform="rotate(-16.028 151.559 89.5585)" fill="white"/>
<circle cx="98.5585" cy="84.5585" r="15" transform="rotate(-16.028 98.5585 84.5585)" fill="white"/>
<ellipse cx="94.5" cy="98.5" rx="17.5" ry="13.5" fill="#F05927"/>
<ellipse cx="143.5" cy="105.5" rx="17.5" ry="13.5" fill="#F05927"/>
<path fill-rule="evenodd" clip-rule="evenodd" d="M100 105.642C100.013 105.651 100.025 105.659 100.038 105.668C100.05 105.676 100.063 105.685 100.075 105.693L100 105.642ZM105.615 103.946C104.3 105.907 104.938 108.59 107.104 109.528C115.219 113.042 124.012 113.939 132.367 112.439C135.893 111.806 136.454 107.405 133.479 105.411V105.411C132.49 104.748 131.279 104.525 130.103 104.707C123.752 105.692 117.126 104.992 110.949 102.465C109.031 101.68 106.768 102.224 105.615 103.946V103.946Z" fill="#332D57"/>
<path fill-rule="evenodd" clip-rule="evenodd" d="M92 55.5584C92.0045 55.5729 92.009 55.5873 92.0134 55.6018C92.0179 55.6163 92.0224 55.6307 92.0269 55.6452L92 55.5584ZM97.431 57.7736C95.1755 58.4704 93.9827 60.9566 95.0757 63.049C99.1699 70.8867 105.439 77.1178 112.875 81.2109C116.014 82.9381 119.22 79.8709 118.162 76.4485V76.4485C117.811 75.3118 117.011 74.3758 115.982 73.7776C110.427 70.5454 105.718 65.8315 102.508 59.98C101.512 58.1629 99.4111 57.1618 97.431 57.7736V57.7736Z" fill="#332D57"/>
<path fill-rule="evenodd" clip-rule="evenodd" d="M132 77.0113C132.014 77.0157 132.029 77.0202 132.043 77.0246C132.058 77.029 132.072 77.0334 132.087 77.0378L132 77.0113ZM136.881 73.7584C136.192 76.0165 137.581 78.3986 139.926 78.6678C148.711 79.6759 157.386 77.9825 164.947 74.1228C168.137 72.494 167.397 68.1191 163.971 67.0743V67.0743C162.833 66.7273 161.609 66.8649 160.537 67.3805C154.744 70.1661 148.2 71.4193 141.556 70.7934C139.492 70.599 137.485 71.7761 136.881 73.7584V73.7584Z" fill="#332D57"/>
</svg>
